<mxfile host="app.diagrams.net" modified="2023-05-28T06:20:18.593Z" agent="Mozilla/5.0 (Windows NT 10.0; Win64; x64) AppleWebKit/537.36 (KHTML, like Gecko) Chrome/113.0.0.0 Safari/537.36" version="21.3.4" etag="Xc8eiXhYvrjDbkewYgUj" type="github">
  <diagram name="Page-1" id="6GlVuKynumtq-shXMLqh">
    <mxGraphModel>
      <root>
        <mxCell id="0" />
        <mxCell id="1" parent="0" />
      </root>
    </mxGraphModel>
  </diagram>
</mxfile>
